<control>


default_path=\


<global>




ampeg_attack=0.001


ampeg_release=0.15


ampeg_dynamic=1




volume=0




<group> //Begin Group for entire instrument




<region>
sample=sons_addsynth1_103.816_G#1_v1.wav
lokey=44
hikey=44
pitch_keycenter=44
lovel=0
hivel=62
volume=9


<region>
sample=sons_addsynth1_51.908_G#1_v1.wav
lokey=44
hikey=44
pitch_keycenter=44
lovel=63
hivel=127
volume=3


<region>
sample=sons_addsynth1_103.816_G#2_v1.wav
lokey=56
hikey=56
pitch_keycenter=56
lovel=0
hivel=62
volume=9


<region>
sample=sons_addsynth1_207.6321_G#2_v1.wav
lokey=56
hikey=56
pitch_keycenter=56
lovel=63
hivel=127
volume=3


<region>
sample=sons_addsynth1_1046.4_C5_v1.wav
lokey=84
hikey=84
pitch_keycenter=84
lovel=0
hivel=62
volume=9


<region>
sample=sons_addsynth1_523.2_C5_v1.wav
lokey=84
hikey=84
pitch_keycenter=84
lovel=63
hivel=127
volume=3


<region>
sample=sons_addsynth1_1046.4_C6_v1.wav
lokey=96
hikey=96
pitch_keycenter=96
lovel=0
hivel=62
volume=9


<region>
sample=sons_addsynth1_2092.8_C6_v1.wav
lokey=96
hikey=96
pitch_keycenter=96
lovel=63
hivel=127
volume=3


<region>
sample=sons_addsynth1_109.9893_A1_v1.wav
lokey=45
hikey=45
pitch_keycenter=45
lovel=0
hivel=62
volume=9


<region>
sample=sons_addsynth1_54.9946_A1_v1.wav
lokey=45
hikey=45
pitch_keycenter=45
lovel=63
hivel=127
volume=3


<region>
sample=sons_addsynth1_109.9893_A2_v1.wav
lokey=57
hikey=57
pitch_keycenter=57
lovel=0
hivel=62
volume=9


<region>
sample=sons_addsynth1_219.9785_A2_v1.wav
lokey=57
hikey=57
pitch_keycenter=57
lovel=63
hivel=127
volume=3


<region>
sample=sons_addsynth1_1108.6222_C#5_v1.wav
lokey=85
hikey=85
pitch_keycenter=85
lovel=0
hivel=62
volume=9


<region>
sample=sons_addsynth1_554.3111_C#5_v1.wav
lokey=85
hikey=85
pitch_keycenter=85
lovel=63
hivel=127
volume=3


<region>
sample=sons_addsynth1_1108.6222_C#6_v1.wav
lokey=97
hikey=97
pitch_keycenter=97
lovel=0
hivel=62
volume=9


<region>
sample=sons_addsynth1_2217.2444_C#6_v1.wav
lokey=97
hikey=97
pitch_keycenter=97
lovel=63
hivel=127
volume=3


<region>
sample=sons_addsynth1_116.5296_A#1_v1.wav
lokey=46
hikey=46
pitch_keycenter=46
lovel=0
hivel=62
volume=9


<region>
sample=sons_addsynth1_58.2648_A#1_v1.wav
lokey=46
hikey=46
pitch_keycenter=46
lovel=63
hivel=127
volume=3


<region>
sample=sons_addsynth1_116.5296_A#2_v1.wav
lokey=58
hikey=58
pitch_keycenter=58
lovel=0
hivel=62
volume=9


<region>
sample=sons_addsynth1_233.0591_A#2_v1.wav
lokey=58
hikey=58
pitch_keycenter=58
lovel=63
hivel=127
volume=3


<region>
sample=sons_addsynth1_1174.5443_D5_v1.wav
lokey=86
hikey=86
pitch_keycenter=86
lovel=0
hivel=62
volume=9


<region>
sample=sons_addsynth1_587.2721_D5_v1.wav
lokey=86
hikey=86
pitch_keycenter=86
lovel=63
hivel=127
volume=3


<region>
sample=sons_addsynth1_1174.5443_D6_v1.wav
lokey=98
hikey=98
pitch_keycenter=98
lovel=0
hivel=62
volume=9


<region>
sample=sons_addsynth1_2349.0886_D6_v1.wav
lokey=98
hikey=98
pitch_keycenter=98
lovel=63
hivel=127
volume=3


<region>
sample=sons_addsynth1_123.4588_B1_v1.wav
lokey=47
hikey=47
pitch_keycenter=47
lovel=0
hivel=62
volume=9


<region>
sample=sons_addsynth1_61.7294_B1_v1.wav
lokey=47
hikey=47
pitch_keycenter=47
lovel=63
hivel=127
volume=3


<region>
sample=sons_addsynth1_123.4588_B2_v1.wav
lokey=59
hikey=59
pitch_keycenter=59
lovel=0
hivel=62
volume=9


<region>
sample=sons_addsynth1_246.9175_B2_v1.wav
lokey=59
hikey=59
pitch_keycenter=59
lovel=63
hivel=127
volume=3


<region>
sample=sons_addsynth1_1244.3863_D#5_v1.wav
lokey=87
hikey=87
pitch_keycenter=87
lovel=0
hivel=62
volume=9


<region>
sample=sons_addsynth1_622.1932_D#5_v1.wav
lokey=87
hikey=87
pitch_keycenter=87
lovel=63
hivel=127
volume=3


<region>
sample=sons_addsynth1_1244.3863_D#6_v1.wav
lokey=99
hikey=99
pitch_keycenter=99
lovel=0
hivel=62
volume=9


<region>
sample=sons_addsynth1_2488.7727_D#6_v1.wav
lokey=99
hikey=99
pitch_keycenter=99
lovel=63
hivel=127
volume=3


<region>
sample=sons_addsynth1_130.8_C2_v1.wav
lokey=48
hikey=48
pitch_keycenter=48
lovel=0
hivel=62
volume=9


<region>
sample=sons_addsynth1_65.4_C2_v1.wav
lokey=48
hikey=48
pitch_keycenter=48
lovel=63
hivel=127
volume=3


<region>
sample=sons_addsynth1_130.8_C3_v1.wav
lokey=60
hikey=60
pitch_keycenter=60
lovel=0
hivel=62
volume=9


<region>
sample=sons_addsynth1_261.6_C3_v1.wav
lokey=60
hikey=60
pitch_keycenter=60
lovel=63
hivel=127
volume=3


<region>
sample=sons_addsynth1_1318.3814_E5_v1.wav
lokey=88
hikey=88
pitch_keycenter=88
lovel=0
hivel=62
volume=9


<region>
sample=sons_addsynth1_659.1907_E5_v1.wav
lokey=88
hikey=88
pitch_keycenter=88
lovel=63
hivel=127
volume=3


<region>
sample=sons_addsynth1_1318.3814_E6_v1.wav
lokey=100
hikey=100
pitch_keycenter=100
lovel=0
hivel=62
volume=9


<region>
sample=sons_addsynth1_2636.7628_E6_v1.wav
lokey=100
hikey=100
pitch_keycenter=100
lovel=63
hivel=127
volume=3


<region>
sample=sons_addsynth1_138.5778_C#2_v1.wav
lokey=49
hikey=49
pitch_keycenter=49
lovel=0
hivel=62
volume=9


<region>
sample=sons_addsynth1_69.2889_C#2_v1.wav
lokey=49
hikey=49
pitch_keycenter=49
lovel=63
hivel=127
volume=3


<region>
sample=sons_addsynth1_138.5778_C#3_v1.wav
lokey=61
hikey=61
pitch_keycenter=61
lovel=0
hivel=62
volume=9


<region>
sample=sons_addsynth1_277.1555_C#3_v1.wav
lokey=61
hikey=61
pitch_keycenter=61
lovel=63
hivel=127
volume=3


<region>
sample=sons_addsynth1_1396.7764_F5_v1.wav
lokey=89
hikey=89
pitch_keycenter=89
lovel=0
hivel=62
volume=9


<region>
sample=sons_addsynth1_698.3882_F5_v1.wav
lokey=89
hikey=89
pitch_keycenter=89
lovel=63
hivel=127
volume=3


<region>
sample=sons_addsynth1_1396.7764_F6_v1.wav
lokey=101
hikey=101
pitch_keycenter=101
lovel=0
hivel=62
volume=9


<region>
sample=sons_addsynth1_2793.5528_F6_v1.wav
lokey=101
hikey=101
pitch_keycenter=101
lovel=63
hivel=127
volume=3


<region>
sample=sons_addsynth1_146.818_D2_v1.wav
lokey=50
hikey=50
pitch_keycenter=50
lovel=0
hivel=62
volume=9


<region>
sample=sons_addsynth1_73.409_D2_v1.wav
lokey=50
hikey=50
pitch_keycenter=50
lovel=63
hivel=127
volume=3


<region>
sample=sons_addsynth1_146.818_D3_v1.wav
lokey=62
hikey=62
pitch_keycenter=62
lovel=0
hivel=62
volume=9


<region>
sample=sons_addsynth1_293.6361_D3_v1.wav
lokey=62
hikey=62
pitch_keycenter=62
lovel=63
hivel=127
volume=3


<region>
sample=sons_addsynth1_1479.8331_F#5_v1.wav
lokey=90
hikey=90
pitch_keycenter=90
lovel=0
hivel=62
volume=9


<region>
sample=sons_addsynth1_739.9165_F#5_v1.wav
lokey=90
hikey=90
pitch_keycenter=90
lovel=63
hivel=127
volume=3


<region>
sample=sons_addsynth1_1479.8331_F#6_v1.wav
lokey=102
hikey=102
pitch_keycenter=102
lovel=0
hivel=62
volume=9


<region>
sample=sons_addsynth1_2959.6661_F#6_v1.wav
lokey=102
hikey=102
pitch_keycenter=102
lovel=63
hivel=127
volume=3


<region>
sample=sons_addsynth1_155.5483_D#2_v1.wav
lokey=51
hikey=51
pitch_keycenter=51
lovel=0
hivel=62
volume=9


<region>
sample=sons_addsynth1_77.7741_D#2_v1.wav
lokey=51
hikey=51
pitch_keycenter=51
lovel=63
hivel=127
volume=3


<region>
sample=sons_addsynth1_155.5483_D#3_v1.wav
lokey=63
hikey=63
pitch_keycenter=63
lovel=0
hivel=62
volume=9


<region>
sample=sons_addsynth1_311.0966_D#3_v1.wav
lokey=63
hikey=63
pitch_keycenter=63
lovel=63
hivel=127
volume=3


<region>
sample=sons_addsynth1_1567.8285_G5_v1.wav
lokey=91
hikey=91
pitch_keycenter=91
lovel=0
hivel=62
volume=9


<region>
sample=sons_addsynth1_783.9143_G5_v1.wav
lokey=91
hikey=91
pitch_keycenter=91
lovel=63
hivel=127
volume=3


<region>
sample=sons_addsynth1_1567.8285_G6_v1.wav
lokey=103
hikey=103
pitch_keycenter=103
lovel=0
hivel=62
volume=9


<region>
sample=sons_addsynth1_3135.6571_G6_v1.wav
lokey=103
hikey=103
pitch_keycenter=103
lovel=63
hivel=127
volume=3


<region>
sample=sons_addsynth1_164.7977_E2_v1.wav
lokey=52
hikey=52
pitch_keycenter=52
lovel=0
hivel=62
volume=9


<region>
sample=sons_addsynth1_82.3988_E2_v1.wav
lokey=52
hikey=52
pitch_keycenter=52
lovel=63
hivel=127
volume=3


<region>
sample=sons_addsynth1_164.7977_E3_v1.wav
lokey=64
hikey=64
pitch_keycenter=64
lovel=0
hivel=62
volume=9


<region>
sample=sons_addsynth1_329.5953_E3_v1.wav
lokey=64
hikey=64
pitch_keycenter=64
lovel=63
hivel=127
volume=3


<region>
sample=sons_addsynth1_1661.0565_G#5_v1.wav
lokey=92
hikey=92
pitch_keycenter=92
lovel=0
hivel=62
volume=9


<region>
sample=sons_addsynth1_830.5282_G#5_v1.wav
lokey=92
hikey=92
pitch_keycenter=92
lovel=63
hivel=127
volume=3


<region>
sample=sons_addsynth1_1661.0565_G#6_v1.wav
lokey=104
hikey=104
pitch_keycenter=104
lovel=0
hivel=62
volume=9


<region>
sample=sons_addsynth1_3322.1129_G#6_v1.wav
lokey=104
hikey=104
pitch_keycenter=104
lovel=63
hivel=127
volume=3


<region>
sample=sons_addsynth1_174.5971_F2_v1.wav
lokey=53
hikey=53
pitch_keycenter=53
lovel=0
hivel=62
volume=9


<region>
sample=sons_addsynth1_87.2985_F2_v1.wav
lokey=53
hikey=53
pitch_keycenter=53
lovel=63
hivel=127
volume=3


<region>
sample=sons_addsynth1_174.5971_F3_v1.wav
lokey=65
hikey=65
pitch_keycenter=65
lovel=0
hivel=62
volume=9


<region>
sample=sons_addsynth1_349.1941_F3_v1.wav
lokey=65
hikey=65
pitch_keycenter=65
lovel=63
hivel=127
volume=3


<region>
sample=sons_addsynth1_1759.828_A5_v1.wav
lokey=93
hikey=93
pitch_keycenter=93
lovel=0
hivel=62
volume=9


<region>
sample=sons_addsynth1_879.914_A5_v1.wav
lokey=93
hikey=93
pitch_keycenter=93
lovel=63
hivel=127
volume=3


<region>
sample=sons_addsynth1_1759.828_A6_v1.wav
lokey=105
hikey=105
pitch_keycenter=105
lovel=0
hivel=62
volume=9


<region>
sample=sons_addsynth1_3519.656_A6_v1.wav
lokey=105
hikey=105
pitch_keycenter=105
lovel=63
hivel=127
volume=3


<region>
sample=sons_addsynth1_184.9791_F#2_v1.wav
lokey=54
hikey=54
pitch_keycenter=54
lovel=0
hivel=62
volume=9


<region>
sample=sons_addsynth1_92.4896_F#2_v1.wav
lokey=54
hikey=54
pitch_keycenter=54
lovel=63
hivel=127
volume=3


<region>
sample=sons_addsynth1_184.9791_F#3_v1.wav
lokey=66
hikey=66
pitch_keycenter=66
lovel=0
hivel=62
volume=9


<region>
sample=sons_addsynth1_369.9583_F#3_v1.wav
lokey=66
hikey=66
pitch_keycenter=66
lovel=63
hivel=127
volume=3


<region>
sample=sons_addsynth1_1864.4728_A#5_v1.wav
lokey=94
hikey=94
pitch_keycenter=94
lovel=0
hivel=62
volume=9


<region>
sample=sons_addsynth1_932.2364_A#5_v1.wav
lokey=94
hikey=94
pitch_keycenter=94
lovel=63
hivel=127
volume=3


<region>
sample=sons_addsynth1_1864.4728_A#6_v1.wav
lokey=106
hikey=106
pitch_keycenter=106
lovel=0
hivel=62
volume=9


<region>
sample=sons_addsynth1_3728.9457_A#6_v1.wav
lokey=106
hikey=106
pitch_keycenter=106
lovel=63
hivel=127
volume=3


<region>
sample=sons_addsynth1_195.9786_G2_v1.wav
lokey=55
hikey=55
pitch_keycenter=55
lovel=0
hivel=62
volume=9


<region>
sample=sons_addsynth1_97.9893_G2_v1.wav
lokey=55
hikey=55
pitch_keycenter=55
lovel=63
hivel=127
volume=3


<region>
sample=sons_addsynth1_195.9786_G3_v1.wav
lokey=67
hikey=67
pitch_keycenter=67
lovel=0
hivel=62
volume=9


<region>
sample=sons_addsynth1_391.9571_G3_v1.wav
lokey=67
hikey=67
pitch_keycenter=67
lovel=63
hivel=127
volume=3


<region>
sample=sons_addsynth1_1975.3402_B5_v1.wav
lokey=95
hikey=95
pitch_keycenter=95
lovel=0
hivel=62
volume=9


<region>
sample=sons_addsynth1_987.6701_B5_v1.wav
lokey=95
hikey=95
pitch_keycenter=95
lovel=63
hivel=127
volume=3


<region>
sample=sons_addsynth1_1975.3402_B6_v1.wav
lokey=107
hikey=107
pitch_keycenter=107
lovel=0
hivel=62
volume=9


<region>
sample=sons_addsynth1_3950.6803_B6_v1.wav
lokey=107
hikey=107
pitch_keycenter=107
lovel=63
hivel=127
volume=3


<region>
sample=sons_addsynth1_207.6321_G#3_v1.wav
lokey=68
hikey=68
pitch_keycenter=68
lovel=0
hivel=62
volume=9


<region>
sample=sons_addsynth1_415.2641_G#3_v1.wav
lokey=68
hikey=68
pitch_keycenter=68
lovel=63
hivel=127
volume=3


<region>
sample=sons_addsynth1_2092.8_C7_v1.wav
lokey=108
hikey=108
pitch_keycenter=108
lovel=0
hivel=62
volume=9


<region>
sample=sons_addsynth1_4185.6_C7_v1.wav
lokey=108
hikey=108
pitch_keycenter=108
lovel=63
hivel=127
volume=3


<region>
sample=sons_addsynth1_219.9785_A3_v1.wav
lokey=69
hikey=69
pitch_keycenter=69
lovel=0
hivel=62
volume=9


<region>
sample=sons_addsynth1_439.957_A3_v1.wav
lokey=69
hikey=69
pitch_keycenter=69
lovel=63
hivel=127
volume=3


<region>
sample=sons_addsynth1_2217.2444_C#7_v1.wav
lokey=109
hikey=109
pitch_keycenter=109
lovel=0
hivel=62
volume=9


<region>
sample=sons_addsynth1_4434.4887_C#7_v1.wav
lokey=109
hikey=109
pitch_keycenter=109
lovel=63
hivel=127
volume=3


<region>
sample=sons_addsynth1_233.0591_A#3_v1.wav
lokey=70
hikey=70
pitch_keycenter=70
lovel=0
hivel=62
volume=9


<region>
sample=sons_addsynth1_466.1182_A#3_v1.wav
lokey=70
hikey=70
pitch_keycenter=70
lovel=63
hivel=127
volume=3


<region>
sample=sons_addsynth1_2349.0886_D7_v1.wav
lokey=110
hikey=110
pitch_keycenter=110
lovel=0
hivel=62
volume=9


<region>
sample=sons_addsynth1_4698.1771_D7_v1.wav
lokey=110
hikey=110
pitch_keycenter=110
lovel=63
hivel=127
volume=3


<region>
sample=sons_addsynth1_246.9175_B3_v1.wav
lokey=71
hikey=71
pitch_keycenter=71
lovel=0
hivel=62
volume=9


<region>
sample=sons_addsynth1_493.835_B3_v1.wav
lokey=71
hikey=71
pitch_keycenter=71
lovel=63
hivel=127
volume=3


<region>
sample=sons_addsynth1_2488.7727_D#7_v1.wav
lokey=111
hikey=111
pitch_keycenter=111
lovel=0
hivel=62
volume=9


<region>
sample=sons_addsynth1_4977.5453_D#7_v1.wav
lokey=111
hikey=111
pitch_keycenter=111
lovel=63
hivel=127
volume=3


<region>
sample=sons_addsynth1_261.6_C4_v1.wav
lokey=72
hikey=72
pitch_keycenter=72
lovel=0
hivel=62
volume=9


<region>
sample=sons_addsynth1_523.2_C4_v1.wav
lokey=72
hikey=72
pitch_keycenter=72
lovel=63
hivel=127
volume=3


<region>
sample=sons_addsynth1_2636.7628_E7_v1.wav
lokey=112
hikey=112
pitch_keycenter=112
lovel=0
hivel=62
volume=9


<region>
sample=sons_addsynth1_5273.5255_E7_v1.wav
lokey=112
hikey=112
pitch_keycenter=112
lovel=63
hivel=127
volume=3


<region>
sample=sons_addsynth1_277.1555_C#4_v1.wav
lokey=73
hikey=73
pitch_keycenter=73
lovel=0
hivel=62
volume=9


<region>
sample=sons_addsynth1_554.3111_C#4_v1.wav
lokey=73
hikey=73
pitch_keycenter=73
lovel=63
hivel=127
volume=3


<region>
sample=sons_addsynth1_2793.5528_F7_v1.wav
lokey=113
hikey=113
pitch_keycenter=113
lovel=0
hivel=62
volume=9


<region>
sample=sons_addsynth1_5587.1057_F7_v1.wav
lokey=113
hikey=113
pitch_keycenter=113
lovel=63
hivel=127
volume=3


<region>
sample=sons_addsynth1_293.6361_D4_v1.wav
lokey=74
hikey=74
pitch_keycenter=74
lovel=0
hivel=62
volume=9


<region>
sample=sons_addsynth1_587.2721_D4_v1.wav
lokey=74
hikey=74
pitch_keycenter=74
lovel=63
hivel=127
volume=3


<region>
sample=sons_addsynth1_2959.6661_F#7_v1.wav
lokey=114
hikey=114
pitch_keycenter=114
lovel=0
hivel=62
volume=9


<region>
sample=sons_addsynth1_5919.3323_F#7_v1.wav
lokey=114
hikey=114
pitch_keycenter=114
lovel=63
hivel=127
volume=3


<region>
sample=sons_addsynth1_311.0966_D#4_v1.wav
lokey=75
hikey=75
pitch_keycenter=75
lovel=0
hivel=62
volume=9


<region>
sample=sons_addsynth1_622.1932_D#4_v1.wav
lokey=75
hikey=75
pitch_keycenter=75
lovel=63
hivel=127
volume=3


<region>
sample=sons_addsynth1_3135.6571_G7_v1.wav
lokey=115
hikey=115
pitch_keycenter=115
lovel=0
hivel=62
volume=9


<region>
sample=sons_addsynth1_6271.3141_G7_v1.wav
lokey=115
hikey=115
pitch_keycenter=115
lovel=63
hivel=127
volume=3


<region>
sample=sons_addsynth1_32.7_C0_v1.wav
lokey=24
hikey=24
pitch_keycenter=24
lovel=0
hivel=127
volume=6


<region>
sample=sons_addsynth1_32.7_C1_v1.wav
lokey=36
hikey=36
pitch_keycenter=36
lovel=0
hivel=62
volume=9


<region>
sample=sons_addsynth1_65.4_C1_v1.wav
lokey=36
hikey=36
pitch_keycenter=36
lovel=63
hivel=127
volume=3


<region>
sample=sons_addsynth1_329.5953_E4_v1.wav
lokey=76
hikey=76
pitch_keycenter=76
lovel=0
hivel=62
volume=9


<region>
sample=sons_addsynth1_659.1907_E4_v1.wav
lokey=76
hikey=76
pitch_keycenter=76
lovel=63
hivel=127
volume=3


<region>
sample=sons_addsynth1_3322.1129_G#7_v1.wav
lokey=116
hikey=116
pitch_keycenter=116
lovel=0
hivel=62
volume=9


<region>
sample=sons_addsynth1_6644.2258_G#7_v1.wav
lokey=116
hikey=116
pitch_keycenter=116
lovel=63
hivel=127
volume=3


<region>
sample=sons_addsynth1_34.6444_C#0_v1.wav
lokey=25
hikey=25
pitch_keycenter=25
lovel=0
hivel=127
volume=6


<region>
sample=sons_addsynth1_34.6444_C#1_v1.wav
lokey=37
hikey=37
pitch_keycenter=37
lovel=0
hivel=62
volume=9


<region>
sample=sons_addsynth1_69.2889_C#1_v1.wav
lokey=37
hikey=37
pitch_keycenter=37
lovel=63
hivel=127
volume=3


<region>
sample=sons_addsynth1_349.1941_F4_v1.wav
lokey=77
hikey=77
pitch_keycenter=77
lovel=0
hivel=62
volume=9


<region>
sample=sons_addsynth1_698.3882_F4_v1.wav
lokey=77
hikey=77
pitch_keycenter=77
lovel=63
hivel=127
volume=3


<region>
sample=sons_addsynth1_3519.656_A7_v1.wav
lokey=117
hikey=117
pitch_keycenter=117
lovel=0
hivel=62
volume=9


<region>
sample=sons_addsynth1_7039.3121_A7_v1.wav
lokey=117
hikey=117
pitch_keycenter=117
lovel=63
hivel=127
volume=3


<region>
sample=sons_addsynth1_36.7045_D0_v1.wav
lokey=26
hikey=26
pitch_keycenter=26
lovel=0
hivel=127
volume=6


<region>
sample=sons_addsynth1_36.7045_D1_v1.wav
lokey=38
hikey=38
pitch_keycenter=38
lovel=0
hivel=62
volume=9


<region>
sample=sons_addsynth1_73.409_D1_v1.wav
lokey=38
hikey=38
pitch_keycenter=38
lovel=63
hivel=127
volume=3


<region>
sample=sons_addsynth1_369.9583_F#4_v1.wav
lokey=78
hikey=78
pitch_keycenter=78
lovel=0
hivel=62
volume=9


<region>
sample=sons_addsynth1_739.9165_F#4_v1.wav
lokey=78
hikey=78
pitch_keycenter=78
lovel=63
hivel=127
volume=3


<region>
sample=sons_addsynth1_3728.9457_A#7_v1.wav
lokey=118
hikey=118
pitch_keycenter=118
lovel=0
hivel=62
volume=9


<region>
sample=sons_addsynth1_7457.8913_A#7_v1.wav
lokey=118
hikey=118
pitch_keycenter=118
lovel=63
hivel=127
volume=3


<region>
sample=sons_addsynth1_38.8871_D#0_v1.wav
lokey=27
hikey=27
pitch_keycenter=27
lovel=0
hivel=127
volume=6


<region>
sample=sons_addsynth1_38.8871_D#1_v1.wav
lokey=39
hikey=39
pitch_keycenter=39
lovel=0
hivel=62
volume=9


<region>
sample=sons_addsynth1_77.7741_D#1_v1.wav
lokey=39
hikey=39
pitch_keycenter=39
lovel=63
hivel=127
volume=3


<region>
sample=sons_addsynth1_391.9571_G4_v1.wav
lokey=79
hikey=79
pitch_keycenter=79
lovel=0
hivel=62
volume=9


<region>
sample=sons_addsynth1_783.9143_G4_v1.wav
lokey=79
hikey=79
pitch_keycenter=79
lovel=63
hivel=127
volume=3


<region>
sample=sons_addsynth1_3950.6803_B7_v1.wav
lokey=119
hikey=119
pitch_keycenter=119
lovel=0
hivel=62
volume=9


<region>
sample=sons_addsynth1_7901.3606_B7_v1.wav
lokey=119
hikey=119
pitch_keycenter=119
lovel=63
hivel=127
volume=3


<region>
sample=sons_addsynth1_41.1994_E0_v1.wav
lokey=28
hikey=28
pitch_keycenter=28
lovel=0
hivel=127
volume=6


<region>
sample=sons_addsynth1_41.1994_E1_v1.wav
lokey=40
hikey=40
pitch_keycenter=40
lovel=0
hivel=62
volume=9


<region>
sample=sons_addsynth1_82.3988_E1_v1.wav
lokey=40
hikey=40
pitch_keycenter=40
lovel=63
hivel=127
volume=3


<region>
sample=sons_addsynth1_415.2641_G#4_v1.wav
lokey=80
hikey=80
pitch_keycenter=80
lovel=0
hivel=62
volume=9


<region>
sample=sons_addsynth1_830.5282_G#4_v1.wav
lokey=80
hikey=80
pitch_keycenter=80
lovel=63
hivel=127
volume=3


<region>
sample=sons_addsynth1_4185.6_C8_v1.wav
lokey=120
hikey=120
pitch_keycenter=120
lovel=0
hivel=127
volume=6


<region>
sample=sons_addsynth1_43.6493_F0_v1.wav
lokey=29
hikey=29
pitch_keycenter=29
lovel=0
hivel=127
volume=6


<region>
sample=sons_addsynth1_43.6493_F1_v1.wav
lokey=41
hikey=41
pitch_keycenter=41
lovel=0
hivel=62
volume=9


<region>
sample=sons_addsynth1_87.2985_F1_v1.wav
lokey=41
hikey=41
pitch_keycenter=41
lovel=63
hivel=127
volume=3


<region>
sample=sons_addsynth1_439.957_A4_v1.wav
lokey=81
hikey=81
pitch_keycenter=81
lovel=0
hivel=62
volume=9


<region>
sample=sons_addsynth1_879.914_A4_v1.wav
lokey=81
hikey=81
pitch_keycenter=81
lovel=63
hivel=127
volume=3


<region>
sample=sons_addsynth1_4434.4887_C#8_v1.wav
lokey=121
hikey=121
pitch_keycenter=121
lovel=0
hivel=127
volume=6


<region>
sample=sons_addsynth1_46.2448_F#0_v1.wav
lokey=30
hikey=30
pitch_keycenter=30
lovel=0
hivel=127
volume=6


<region>
sample=sons_addsynth1_46.2448_F#1_v1.wav
lokey=42
hikey=42
pitch_keycenter=42
lovel=0
hivel=62
volume=9


<region>
sample=sons_addsynth1_92.4896_F#1_v1.wav
lokey=42
hikey=42
pitch_keycenter=42
lovel=63
hivel=127
volume=3


<region>
sample=sons_addsynth1_466.1182_A#4_v1.wav
lokey=82
hikey=82
pitch_keycenter=82
lovel=0
hivel=62
volume=9


<region>
sample=sons_addsynth1_932.2364_A#4_v1.wav
lokey=82
hikey=82
pitch_keycenter=82
lovel=63
hivel=127
volume=3


<region>
sample=sons_addsynth1_4698.1771_D8_v1.wav
lokey=122
hikey=122
pitch_keycenter=122
lovel=0
hivel=127
volume=6


<region>
sample=sons_addsynth1_48.9946_G0_v1.wav
lokey=31
hikey=31
pitch_keycenter=31
lovel=0
hivel=127
volume=6


<region>
sample=sons_addsynth1_48.9946_G1_v1.wav
lokey=43
hikey=43
pitch_keycenter=43
lovel=0
hivel=62
volume=9


<region>
sample=sons_addsynth1_97.9893_G1_v1.wav
lokey=43
hikey=43
pitch_keycenter=43
lovel=63
hivel=127
volume=3


<region>
sample=sons_addsynth1_493.835_B4_v1.wav
lokey=83
hikey=83
pitch_keycenter=83
lovel=0
hivel=62
volume=9


<region>
sample=sons_addsynth1_987.6701_B4_v1.wav
lokey=83
hikey=83
pitch_keycenter=83
lovel=63
hivel=127
volume=3


<region>
sample=sons_addsynth1_4977.5453_D#8_v1.wav
lokey=123
hikey=123
pitch_keycenter=123
lovel=0
hivel=127
volume=6


<region>
sample=sons_addsynth1_51.908_G#0_v1.wav
lokey=32
hikey=32
pitch_keycenter=32
lovel=0
hivel=127
volume=6


<region>
sample=sons_addsynth1_5273.5255_E8_v1.wav
lokey=124
hikey=124
pitch_keycenter=124
lovel=0
hivel=127
volume=6


<region>
sample=sons_addsynth1_54.9946_A0_v1.wav
lokey=33
hikey=33
pitch_keycenter=33
lovel=0
hivel=127
volume=6


<region>
sample=sons_addsynth1_5587.1057_F8_v1.wav
lokey=125
hikey=125
pitch_keycenter=125
lovel=0
hivel=127
volume=6


<region>
sample=sons_addsynth1_58.2648_A#0_v1.wav
lokey=34
hikey=34
pitch_keycenter=34
lovel=0
hivel=127
volume=6


<region>
sample=sons_addsynth1_5919.3323_F#8_v1.wav
lokey=126
hikey=126
pitch_keycenter=126
lovel=0
hivel=127
volume=6


<region>
sample=sons_addsynth1_61.7294_B0_v1.wav
lokey=35
hikey=35
pitch_keycenter=35
lovel=0
hivel=127
volume=6


<region>
sample=sons_addsynth1_6271.3141_G8_v1.wav
lokey=127
hikey=127
pitch_keycenter=127
lovel=0
hivel=127
volume=6


